<svg width="198" height="28" viewBox="0 0 198 28" fill="none" xmlns="http://www.w3.org/2000/svg">
<g id="Patreon (logo &#226;&#128;&#148; Colour)">
<path id="Vector" d="M14.3824 10.1806C14.3824 7.76245 12.7383 5.6792 10.1982 5.6792H6.05169V14.6807H10.1982C12.7383 14.6807 14.3824 12.5987 14.3824 10.1806ZM0 0.769287H10.9449C16.7355 0.769287 20.4717 5.12193 20.4717 10.1806C20.4717 15.2392 16.7355 19.5906 10.9449 19.5906H6.05169V26.8075H0V0.769287Z" fill="#FF424D"/>
<path id="Vector_2" d="M37.9914 8.20856L34.7785 18.922H41.1289L37.9914 8.20856ZM43.6326 26.8075L42.625 23.6457H33.3228L32.3137 26.8075H25.8506L35.1902 0.769287H40.7561L50.2076 26.8075H43.6326Z" fill="#FF424D"/>
<path id="Vector_3" d="M60.3688 5.97667H54.4678V0.769287H72.3604V5.97667H66.4203V26.8075H60.3688V5.97667Z" fill="#FF424D"/>
<path id="Vector_4" d="M96.157 10.1806C96.157 7.76245 94.5127 5.6792 91.9723 5.6792H87.8255V14.6807H91.9723C94.5127 14.6807 96.157 12.5987 96.157 10.1806ZM81.7744 0.769287H92.7581C98.5475 0.769287 102.284 5.12193 102.284 10.1806C102.284 13.8258 100.341 17.0612 97.0901 18.5871L102.322 26.8075H95.2985L90.6647 19.5906H87.8255V26.8075H81.7744V0.769287Z" fill="#FF424D"/>
<path id="Vector_5" d="M118.609 5.60549V11.5189H128.508V16.244H118.609V21.9711H128.508V26.8075H112.557V0.769287H128.508V5.60549H118.609Z" fill="#FF424D"/>
<path id="Vector_6" d="M159.851 13.6889C159.851 9.41128 156.936 5.43111 152.193 5.43111C147.41 5.43111 144.534 9.41128 144.534 13.6889C144.534 17.9665 147.41 21.9467 152.193 21.9467C156.936 21.9467 159.851 17.9665 159.851 13.6889ZM138.332 13.6889C138.332 6.54703 143.488 0 152.193 0C160.858 0 166.014 6.54703 166.014 13.6889C166.014 20.8307 160.858 27.3778 152.193 27.3778C143.488 27.3778 138.332 20.8307 138.332 13.6889Z" fill="#FF424D"/>
<path id="Vector_7" d="M191.829 17.7311V0.769287H197.842V26.8075H191.529L182.114 10.0681V26.8075H176.062V0.769287H182.375L191.829 17.7311Z" fill="#FF424D"/>
</g>
</svg>
