<svg width="114" height="31" viewBox="0 0 114 31" fill="none" xmlns="http://www.w3.org/2000/svg">
<g id="PayPal (logo &#226;&#128;&#148; Colour)">
<path id="Vector" d="M13.6643 0.00488281H4.80753C4.20135 0.00488281 3.68597 0.442738 3.5914 1.03774L0.00930056 23.6159C-0.0619446 24.0613 0.285204 24.4631 0.739695 24.4631H4.96806C5.57414 24.4631 6.08952 24.0255 6.18409 23.4293L7.15018 17.3396C7.24347 16.7434 7.76013 16.3056 8.36492 16.3056H11.1687C17.0029 16.3056 20.37 13.4989 21.2495 7.9371C21.6457 5.50376 21.2662 3.59193 20.1201 2.25297C18.8613 0.782546 16.6286 0.00488281 13.6643 0.00488281ZM14.6861 8.25129C14.2018 11.4107 11.7735 11.4107 9.42559 11.4107H8.08913L9.02671 5.51029C9.08245 5.15362 9.3932 4.89098 9.75587 4.89098H10.3684C11.9677 4.89098 13.4765 4.89098 14.2561 5.79727C14.7211 6.33808 14.8636 7.14142 14.6861 8.25129Z" fill="#283B82"/>
<path id="Vector_2" d="M40.1391 8.14652H35.8982C35.5368 8.14652 35.2247 8.40917 35.1689 8.76582L34.9813 9.94513L34.6846 9.51763C33.7665 8.19279 31.7189 7.75 29.6754 7.75C24.9885 7.75 20.9855 11.2789 20.206 16.2292C19.8007 18.6985 20.3769 21.0598 21.786 22.7063C23.0783 24.2203 24.9276 24.8513 27.1282 24.8513C30.9045 24.8513 32.9984 22.4373 32.9984 22.4373L32.8094 23.609C32.738 24.0571 33.0853 24.4587 33.5372 24.4587H37.3574C37.9649 24.4587 38.4778 24.0209 38.5737 23.4249L40.8657 8.99364C40.9384 8.54944 40.5926 8.14652 40.1391 8.14652ZM34.2274 16.3528C33.8183 18.7616 31.8951 20.3788 29.4423 20.3788C28.2109 20.3788 27.2264 19.986 26.5944 19.2419C25.9677 18.5028 25.7294 17.451 25.9287 16.2794C26.3108 13.8912 28.2665 12.2214 30.6816 12.2214C31.886 12.2214 32.865 12.6192 33.5101 13.3697C34.1563 14.128 34.4126 15.1863 34.2274 16.3528Z" fill="#283B82"/>
<path id="Vector_3" d="M62.7272 8.14648H58.4654C58.0587 8.14648 57.6766 8.34734 57.4461 8.68344L51.5678 17.2914L49.0763 9.01944C48.9195 8.5018 48.4393 8.14648 47.8952 8.14648H43.7071C43.198 8.14648 42.8446 8.64083 43.0064 9.11721L47.7009 22.8132L43.2875 29.0073C42.9403 29.4952 43.2899 30.1662 43.8898 30.1662H48.1466C48.5505 30.1662 48.9288 29.9704 49.1578 29.6408L63.3334 9.29886C63.6727 8.81209 63.3244 8.14648 62.7272 8.14648Z" fill="#283B82"/>
<path id="Vector_4" d="M76.8381 0.00170898H67.98C67.3752 0.00170898 66.8598 0.439564 66.7652 1.03456L63.1831 23.6127C63.1119 24.0581 63.459 24.4599 63.911 24.4599H68.4566C68.8787 24.4599 69.2403 24.1536 69.306 23.7363L70.3226 17.3365C70.4159 16.7402 70.9328 16.3025 71.5374 16.3025H74.34C80.1755 16.3025 83.5413 13.4958 84.4219 7.93392C84.8195 5.50058 84.4375 3.58876 83.2914 2.2498C82.0338 0.779372 79.8025 0.00170898 76.8381 0.00170898ZM77.8601 8.24811C77.3769 11.4076 74.9487 11.4076 72.5994 11.4076H71.2643L72.2033 5.50712C72.2589 5.15044 72.567 4.88781 72.9309 4.88781H73.5434C75.1418 4.88781 76.6516 4.88781 77.4312 5.79409C77.8961 6.33491 78.0373 7.13825 77.8601 8.24811Z" fill="#469BDB"/>
<path id="Vector_5" d="M103.312 8.14652H99.073C98.7091 8.14652 98.3993 8.40917 98.3449 8.76582L98.1572 9.94513L97.8594 9.51763C96.9413 8.19279 94.895 7.75 92.8514 7.75C88.1646 7.75 84.163 11.2789 83.3833 16.2292C82.9794 18.6985 83.5529 21.0598 84.962 22.7063C86.2571 24.2203 88.1037 24.8513 90.304 24.8513C94.0804 24.8513 96.1745 22.4373 96.1745 22.4373L95.9853 23.609C95.9143 24.0571 96.2611 24.4587 96.7159 24.4587H100.535C101.14 24.4587 101.655 24.0209 101.75 23.4249L104.043 8.99364C104.113 8.54944 103.766 8.14652 103.312 8.14652ZM97.3997 16.3528C96.993 18.7616 95.0672 20.3788 92.6146 20.3788C91.3855 20.3788 90.3986 19.986 89.7665 19.2419C89.14 18.5028 88.904 17.451 89.101 16.2794C89.4856 13.8912 91.4386 12.2214 93.8538 12.2214C95.0583 12.2214 96.0371 12.6192 96.6821 13.3697C97.331 14.128 97.5874 15.1863 97.3997 16.3528Z" fill="#469BDB"/>
<path id="Vector_6" d="M108.312 0.62125L104.676 23.6129C104.605 24.0583 104.952 24.4601 105.404 24.4601H109.059C109.666 24.4601 110.182 24.0225 110.275 23.4263L113.859 0.849311C113.931 0.403665 113.584 0.000732422 113.132 0.000732422H109.039C108.678 0.00180646 108.367 0.264787 108.312 0.62125Z" fill="#469BDB"/>
</g>
</svg>
