<svg width="26" height="26" viewBox="0 0 26 26" fill="none" xmlns="http://www.w3.org/2000/svg">
<g id="Twitter (icon &#226;&#128;&#148; Colour)">
<path id="Vector" d="M23.1448 6.30356C23.1604 6.57025 23.1604 6.83693 23.1604 7.10609C23.1604 15.3072 17.8631 24.7654 8.17666 24.7654V24.7605C5.31527 24.7654 2.51331 23.7995 0.104492 21.9781C0.520561 22.0372 0.938716 22.0666 1.35791 22.0678C3.7292 22.0702 6.03269 21.1325 7.89823 19.4059C5.64479 19.3554 3.66872 17.6239 2.97839 15.0958C3.76778 15.2752 4.58115 15.2383 5.35594 14.9888C2.89915 14.4038 1.13163 11.8598 1.13163 8.90533C1.13163 8.87829 1.13163 8.85249 1.13163 8.82668C1.86367 9.30722 2.68329 9.5739 3.52168 9.60339C1.20775 7.7808 0.494492 4.15283 1.89182 1.31631C4.56551 5.19378 8.51034 7.55098 12.7451 7.80048C12.3207 5.64482 12.9005 3.38594 14.2686 1.87058C16.3897 -0.47925 19.7255 -0.358809 21.7192 2.13973C22.8987 1.86567 24.0291 1.35563 25.0635 0.632987C24.6704 2.06969 23.8475 3.29007 22.7484 4.06556C23.7923 3.92053 24.8122 3.59117 25.7725 3.08851C25.0655 4.33717 24.175 5.42482 23.1448 6.30356Z" fill="#92C7EB"/>
</g>
</svg>
